<svg width="131" height="40" viewBox="0 0 131 40" fill="none" xmlns="http://www.w3.org/2000/svg">
    <path d="M0 6.66H4.2V18H7.02L6.8 16.28V6.66H11.12V4.64H0V6.66ZM22.2933 12.86C22.2933 14.86 20.9333 16.3 19.1933 16.3C17.4733 16.3 16.1933 15 16.1933 13V4.64H13.3133L13.5933 6.7V13.16C13.5933 13.5 13.7133 18.26 18.8333 18.26C22.3533 18.26 24.5933 16 24.5933 12.64V4.64H22.0133L22.2933 6.7V12.86ZM38.7697 18L34.6297 12.7C36.1297 11.94 37.1497 10.28 37.1497 8.8C37.1497 5.96 34.8297 4.64 32.4297 4.64H28.2897L28.5697 6.7V18H31.3897L31.1697 16.28V13.28H32.1897L35.5097 18H38.7697ZM31.1697 11.38V6.48H32.0697C33.3297 6.48 34.4497 7.28 34.4497 8.8C34.4497 10.22 33.3297 11.38 32.0697 11.38H31.1697ZM38.968 6.66H43.168V18H45.988L45.768 16.28V6.66H50.088V4.64H38.968V6.66ZM52.6213 18H59.8213L60.3213 15.98H55.2213V4.64H52.3413L52.6213 6.7V18ZM62.8502 18H69.9902L70.4902 16.02H65.4502V12.14H69.1702L69.6702 10.16H65.4502V6.62H70.2302V4.64H62.5702L62.8502 6.7V18ZM96.5455 4.64H94.0455L90.9455 13.02L90.5255 14.6L90.2455 13.02L87.3055 4.64H84.4455L85.9055 8.58L84.1455 13.02L83.7255 14.6L83.4455 13.02L80.5055 4.64H77.3055L78.6055 7.12L82.5855 17.86L84.4055 18.26L87.0455 11.64L89.3855 17.86L91.2055 18.26L96.5455 4.64ZM104.164 4.44C100.524 4.44 97.7638 7.48 97.7638 11.46C97.7638 15.28 99.9838 18.26 103.904 18.26C107.544 18.26 110.344 15.22 110.344 11.22C110.344 7.26 108.284 4.44 104.164 4.44ZM100.524 11.34C100.524 8.48 101.944 6.36 104.064 6.36C106.184 6.36 107.584 8.48 107.584 11.34C107.584 14.2 106.184 16.32 104.064 16.32C101.944 16.32 100.524 14.2 100.524 11.34ZM130.792 4.64H128.292L125.192 13.02L124.772 14.6L124.492 13.02L121.552 4.64H118.692L120.152 8.58L118.392 13.02L117.972 14.6L117.692 13.02L114.752 4.64H111.552L112.852 7.12L116.832 17.86L118.652 18.26L121.292 11.64L123.632 17.86L125.452 18.26L130.792 4.64Z" fill="white"/>
    <path d="M5.017 25.285C2.5375 25.285 0.667 27.518 0.667 30.3165C0.667 32.999 2.175 35.1885 4.8285 35.1885C7.308 35.1885 9.2075 32.9555 9.2075 30.1425C9.2075 27.3585 7.8155 25.285 5.017 25.285ZM2.088 30.2295C2.088 28.069 3.2335 26.3145 4.9445 26.3145C6.6555 26.3145 7.7865 28.069 7.7865 30.2295C7.7865 32.39 6.6555 34.1445 4.9445 34.1445C3.2335 34.1445 2.088 32.39 2.088 30.2295ZM19.672 25.459H18.2945L18.483 26.793V32.4335L17.845 31.491L12.5235 25.459H11.639L11.8275 26.793V35H13.1615L13.0165 33.9125V27.9675L13.64 28.91L19.0775 35H19.759L19.672 33.9125V25.459ZM23.1961 35H27.9521L28.2421 33.898H24.5011V25.459H23.0076L23.1961 26.793V35ZM31.6905 25.459H30.197L30.3855 26.793V35H31.8355L31.6905 33.9125V25.459ZM43.0951 25.459H41.7176L41.9061 26.793V32.4335L41.2681 31.491L35.9466 25.459H35.0621L35.2506 26.793V35H36.5846L36.4396 33.9125V27.9675L37.0631 28.91L42.5006 35H43.1821L43.0951 33.9125V25.459ZM46.6193 35H51.2593L51.5493 33.927H47.9243V30.65H50.6648L50.9548 29.577H47.9243V26.532H51.3898V25.459H46.4308L46.6193 26.793V35ZM57.8065 34.1155C57.8065 34.1155 58.691 35.1885 60.402 35.1885C62.171 35.1885 63.2875 34.014 63.2875 32.3755C63.2875 29.5335 59.1985 29.7075 59.1985 27.6195C59.1985 26.7785 59.909 26.3145 60.5905 26.3145C61.6925 26.3145 62.6205 26.9525 62.6495 27.025L63.0265 25.9665C62.5915 25.691 61.7795 25.285 60.634 25.285C58.9955 25.285 57.8355 26.5175 57.8355 28.011C57.8355 30.5775 61.997 30.65 61.997 32.564C61.997 33.579 61.272 34.1445 60.4455 34.1445C59.01 34.1445 57.9515 32.8685 57.9515 32.8685C57.9515 32.8685 57.821 34.101 57.8065 34.1155ZM67.3543 25.459H65.8608L66.0493 26.793V35H67.4993L67.3543 33.9125V25.459ZM78.7589 25.459H77.3814L77.5699 26.793V32.4335L76.9319 31.491L71.6104 25.459H70.7259L70.9144 26.793V35H72.2484L72.1034 33.9125V27.9675L72.7269 28.91L78.1644 35H78.8459L78.7589 33.9125V25.459ZM88.9676 26.474C88.1121 25.691 87.1261 25.285 85.9226 25.285C83.3706 25.285 81.3116 27.46 81.3116 30.4325C81.3116 33.5355 83.4866 35.1885 85.7341 35.1885C87.7061 35.1885 89.0981 33.927 89.0981 33.927L88.7791 32.854C88.7791 32.854 87.2856 34.072 85.9661 34.072C84.3421 34.072 82.7036 32.622 82.7036 30.2875C82.7036 28.272 83.9941 26.358 85.8646 26.358C86.8216 26.358 87.6191 26.7495 88.3006 27.46L88.9676 26.474ZM91.6673 35H96.3073L96.5973 33.927H92.9723V30.65H95.7128L96.0028 29.577H92.9723V26.532H96.4378V25.459H91.4788L91.6673 26.793V35ZM108.394 35L108.539 33.869H104.841C104.841 33.869 108.046 31.1865 108.046 28.649C108.046 27.17 106.842 26.4305 105.581 26.4305C104.667 26.4305 103.768 26.735 103.188 27.228L103.71 28.243C104.145 27.75 104.783 27.402 105.378 27.402C106.045 27.402 106.697 27.866 106.697 28.8375C106.697 30.389 104.363 33.0135 103.464 34.0285C103.319 34.188 103.188 34.362 103.188 34.362L103.333 35H108.394ZM113.469 26.474C111.294 26.474 110.366 28.4025 110.366 30.8095C110.366 33.9415 111.613 35.1885 113.15 35.1885C115.542 35.1885 116.412 33.1875 116.412 30.824C116.412 28.852 115.948 26.474 113.469 26.474ZM113.382 27.431C114.643 27.431 115.107 28.852 115.107 30.882C115.107 32.941 114.411 34.2605 113.309 34.2605C112.033 34.2605 111.7 32.709 111.7 30.65C111.7 28.6635 112.222 27.431 113.382 27.431ZM118.152 35H122.807L122.952 34.043H121.154V26.4595L118.065 27.489L118.428 28.3735L119.936 27.9095V34.043H118.152V35ZM127.104 35.1885C128.917 35.1885 130.265 34.0285 130.265 32.39C130.265 31.4185 129.236 30.5775 128.192 29.78C129.062 29.1565 129.903 28.388 129.903 27.228C129.903 26.155 128.975 25.2995 127.481 25.2995C125.814 25.2995 124.799 26.3 124.799 27.6195C124.799 28.5765 125.538 29.3015 126.466 30.0265C125.422 30.7515 124.422 31.5925 124.422 32.941C124.422 34.623 125.944 35.1885 127.104 35.1885ZM125.683 32.506C125.683 31.6505 126.321 31.0705 127.119 30.5195C128.09 31.2735 129.004 31.984 129.004 32.7525C129.004 33.5355 128.105 34.1445 127.235 34.1445C126.307 34.1445 125.683 33.5645 125.683 32.506ZM128.656 27.6195C128.656 28.272 128.177 28.7795 127.51 29.2725C126.669 28.6345 126.002 28.0255 126.002 27.3875C126.002 26.6625 126.539 26.213 127.322 26.213C128.322 26.213 128.656 26.938 128.656 27.6195Z" fill="white"/>
</svg>
